# xmcd
#
# Track frame offsets: 
#        150
#        20011
#        42938
#        65029
#        93664
#        114634
#        133190
#        180345
#        240578
#        260837
#
# Disc length: 3711 seconds
#
# Revision: 2
# Processed by: cddbd v1.5.2PL0 Copyright (c) Steve Scherf et al.
# Submitted via: ExactAudioCopy v0.99pb4
#
DISCID=910e7d0a
DTITLE=Monty Alexander - Alexander The Great - Monty Swings On MPS - C
DTITLE=D1
DYEAR=1971
DGENRE=Jazz
TTITLE0=Montevideo
TTITLE1=Where Is Love
TTITLE2=Here Comes The Sun
TTITLE3=Love Walked In
TTITLE4=Brown Skin Girl
TTITLE5=This Dream Of Mine
TTITLE6=So What
TTITLE7=It Could Happen To You
TTITLE8=Theme From Summer Of '42
TTITLE9=Monticello
EXTD=YEAR: 2007
EXTT0=
EXTT1=
EXTT2=
EXTT3=
EXTT4=
EXTT5=
EXTT6=
EXTT7=
EXTT8=
EXTT9=
PLAYORDER=
